<svg width="256" height="256" viewBox="0 0 256 256" fill="none" xmlns="http://www.w3.org/2000/svg" role="img" aria-labelledby="title desc">
  <title id="title">TerKix logo</title>
  <desc id="desc">A neon terminal shield with the letters TK and a Termux-inspired command prompt.</desc>
  <rect width="256" height="256" rx="56" fill="#030508"/>
  <rect x="18" y="18" width="220" height="220" rx="46" fill="url(#paint0_radial)" stroke="url(#paint1_linear)" stroke-width="4"/>
  <path d="M63 73C63 62.5066 71.5066 54 82 54H174C184.493 54 193 62.5066 193 73V183C193 193.493 184.493 202 174 202H82C71.5066 202 63 193.493 63 183V73Z" fill="#0D1117" stroke="#30363D" stroke-width="3"/>
  <path d="M84 86H172" stroke="#58A6FF" stroke-width="8" stroke-linecap="round"/>
  <circle cx="88" cy="86" r="4" fill="#3FB950"/>
  <circle cx="104" cy="86" r="4" fill="#F0883E"/>
  <circle cx="120" cy="86" r="4" fill="#BC8CFF"/>
  <path d="M88 121L111 139L88 157" stroke="#3FB950" stroke-width="12" stroke-linecap="round" stroke-linejoin="round"/>
  <path d="M123 158H166" stroke="#58A6FF" stroke-width="12" stroke-linecap="round"/>
  <path d="M94 104H117V180" stroke="#E6EDF3" stroke-width="13" stroke-linecap="round" stroke-linejoin="round"/>
  <path d="M137 104V180" stroke="#E6EDF3" stroke-width="13" stroke-linecap="round"/>
  <path d="M172 105L142 138L174 180" stroke="#E6EDF3" stroke-width="13" stroke-linecap="round" stroke-linejoin="round"/>
  <path d="M48 212L73 194" stroke="#3FB950" stroke-width="5" stroke-linecap="round"/>
  <path d="M208 44L186 61" stroke="#58A6FF" stroke-width="5" stroke-linecap="round"/>
  <defs>
    <radialGradient id="paint0_radial" cx="0" cy="0" r="1" gradientUnits="userSpaceOnUse" gradientTransform="translate(128 102) rotate(90) scale(145)">
      <stop stop-color="#13233A"/>
      <stop offset="0.55" stop-color="#0A111C"/>
      <stop offset="1" stop-color="#030508"/>
    </radialGradient>
    <linearGradient id="paint1_linear" x1="33" y1="34" x2="222" y2="224" gradientUnits="userSpaceOnUse">
      <stop stop-color="#58A6FF"/>
      <stop offset="0.48" stop-color="#3FB950"/>
      <stop offset="1" stop-color="#BC8CFF"/>
    </linearGradient>
  </defs>
</svg>
